<?xml version="1.0" encoding="UTF-8"?><svg id="a" xmlns="http://www.w3.org/2000/svg" viewBox="0 0 500 274.57"><defs><style>.c,.d{fill:#005b99;}.c,.e{stroke-width:0px;}.d{font-family:AlfaSlabOne-Regular, 'Alfa Slab One';font-size:70.33px;}.e{fill:gold;}</style></defs><path class="c" d="M38.09,49.96l-11.54,11.54c-3.52,3.52-4.7,8.74-3.04,13.43l8.14,22.97c-.84,1.85-1.61,3.71-2.33,5.57l-21.97,10.48C2.86,116.09,0,120.62,0,125.6v32.64c0,4.97,2.86,9.51,7.35,11.65l21.97,10.48c.72,1.86,1.5,3.72,2.33,5.57l-8.14,22.97c-1.66,4.69-.48,9.92,3.04,13.43l23.08,23.08c3.52,3.52,8.75,4.69,13.43,3.04l22.97-8.14c1.85.84,3.71,1.61,5.57,2.33l10.48,21.97c2.14,4.49,6.67,7.35,11.65,7.35h32.64c4.97,0,9.51-2.86,11.65-7.35l10.48-21.97c1.86-.72,3.72-1.5,5.57-2.33l22.97,8.14c4.68,1.64,9.91.47,13.43-3.04l11.54-11.54-18.25-18.25-5.78,5.78-20.36-7.22c-3.35-1.19-7.04-.94-10.21.69-4.05,2.08-8.17,3.8-12.22,5.11-3.38,1.09-6.16,3.52-7.69,6.73l-9.27,19.44h-16.35l-9.27-19.44c-1.53-3.2-4.31-5.64-7.69-6.73-4.06-1.31-8.17-3.03-12.22-5.11-3.16-1.63-6.85-1.87-10.21-.69l-20.36,7.22-11.56-11.56,7.22-20.36c1.18-3.35.94-7.04-.69-10.21-2.08-4.05-3.8-8.17-5.11-12.22-1.09-3.38-3.52-6.16-6.73-7.69l-19.44-9.27v-16.35l19.44-9.27c3.2-1.53,5.64-4.31,6.73-7.69,1.31-4.06,3.03-8.17,5.11-12.22,1.63-3.16,1.87-6.86.69-10.21l-7.22-20.36,5.78-5.78-18.25-18.25Z"/><path class="e" d="M151.35,202.13c-6.58,1.76-13.36,2.66-20.17,2.67-36.76,0-71.64-24.72-71.59-62.36,0-30.56,26.33-57.07,40.99-76.56,14.66-19.48,26.01-40.62,29.32-62.08.1-.65.63-1.14,1.29-1.19.6,0,.96.55,1.29,1.19,11.34,21.53,14.27,46.51,8.23,70.08-5.79,19.62-21.64,41.82-27.85,67.64-7.21,30.14,9.14,63.83,38.51,60.61ZM166.37,69.6c9.19,13.1,6.11,25.5,5.05,34.65-1.38,12.45-5.28,24.49-6.11,37.04-.92,13.79,4.6,29.41,17.78,30.7,14.98,1.42,19.71-18.93,19.67-29.55-.05-26.88-21.55-54.22-36.39-72.83ZM153.51,156.18c-2.85-18.38,4.96-36.21,7.81-54.09,3.77-23.44,3.17-43.7-14.2-62.82,8,22.98,6.11,40.3-4.6,62.13-9.19,18.89-21.55,36.76-21.18,59.09.46,25.64,19.94,44.67,43.24,36.76,11.87-4.91,22-13.29,29.04-24.03-4.51,5.12-11.45,7.37-18.11,5.88-11.63-1.88-20.61-11.23-22.01-22.93Z"/><text class="d" transform="translate(222 161.19)"><tspan x="0" y="0">Fugafix</tspan></text></svg>