<?xml version="1.0" encoding="UTF-8"?><svg id="a" xmlns="http://www.w3.org/2000/svg" viewBox="0 0 64 64"><defs><style>.c{fill:#005b99;}.c,.d{stroke-width:0px;}.d{fill:gold;}</style></defs><path class="c" d="M14.31,10.12l-2.8,2.8c-.85.85-1.14,2.12-.74,3.26l1.98,5.57c-.2.45-.39.9-.57,1.35l-5.33,2.54c-1.09.52-1.78,1.62-1.78,2.83v7.92c0,1.21.69,2.31,1.78,2.83l5.33,2.54c.17.45.36.9.57,1.35l-1.98,5.57c-.4,1.14-.12,2.41.74,3.26l5.6,5.6c.85.85,2.12,1.14,3.26.74l5.57-1.98c.45.2.9.39,1.35.57l2.54,5.33c.52,1.09,1.62,1.78,2.83,1.78h7.92c1.21,0,2.31-.69,2.83-1.78l2.54-5.33c.45-.17.9-.36,1.35-.57l5.57,1.98c1.14.4,2.41.12,3.26-.74l2.8-2.8-4.43-4.43-1.4,1.4-4.94-1.75c-.81-.29-1.71-.23-2.48.17-.98.5-1.98.92-2.97,1.24-.82.26-1.5.86-1.87,1.63l-2.25,4.72h-3.97l-2.25-4.72c-.37-.78-1.05-1.37-1.87-1.63-.98-.32-1.98-.73-2.97-1.24-.77-.4-1.66-.45-2.48-.17l-4.94,1.75-2.81-2.81,1.75-4.94c.29-.81.23-1.71-.17-2.48-.5-.98-.92-1.98-1.24-2.97-.26-.82-.86-1.5-1.63-1.87l-4.72-2.25v-3.97l4.72-2.25c.78-.37,1.37-1.05,1.63-1.87.32-.98.73-1.98,1.24-2.97.39-.77.45-1.66.17-2.48l-1.75-4.94,1.4-1.4-4.43-4.43Z"/><path class="d" d="M41.79,48.43c-1.6.43-3.24.64-4.9.65-8.92,0-17.38-6-17.37-15.13,0-7.42,6.39-13.85,9.95-18.58s6.31-9.86,7.11-15.06c.03-.16.15-.28.31-.29.14,0,.23.13.31.29,2.75,5.22,3.46,11.29,2,17-1.41,4.76-5.25,10.15-6.76,16.41-1.75,7.31,2.22,15.49,9.34,14.71ZM45.44,16.27c2.23,3.18,1.48,6.19,1.23,8.41-.33,3.02-1.28,5.94-1.48,8.99-.22,3.35,1.12,7.14,4.32,7.45,3.64.35,4.78-4.59,4.77-7.17-.01-6.52-5.23-13.16-8.83-17.67ZM42.31,37.28c-.69-4.46,1.2-8.79,1.9-13.12.91-5.69.77-10.6-3.45-15.24,1.94,5.58,1.48,9.78-1.12,15.08-2.23,4.58-5.23,8.92-5.14,14.34.11,6.22,4.84,10.84,10.49,8.92,2.88-1.19,5.34-3.22,7.05-5.83-1.09,1.24-2.78,1.79-4.39,1.43-2.82-.46-5-2.73-5.34-5.56Z"/></svg>