<?xml version="1.0" encoding="UTF-8"?><svg id="a" xmlns="http://www.w3.org/2000/svg" viewBox="0 0 500 500"><defs><style>.c{fill:#005b99;}.c,.d{stroke-width:0px;}.d{fill:gold;}</style></defs><path class="c" d="M113.42,81.06l-21.62,21.61c-6.59,6.59-8.8,16.37-5.7,25.16l15.25,43.03c-1.57,3.47-3.02,6.95-4.37,10.43l-41.15,19.62c-8.41,4.01-13.77,12.5-13.77,21.82v61.14c0,9.32,5.36,17.81,13.77,21.82l41.15,19.62c1.35,3.49,2.8,6.96,4.37,10.43l-15.25,43.03c-3.11,8.78-.9,18.58,5.7,25.16l43.24,43.24c6.59,6.59,16.38,8.79,25.16,5.7l43.03-15.25c3.47,1.57,6.95,3.02,10.43,4.37l19.62,41.15c4.01,8.41,12.5,13.77,21.82,13.77h61.14c9.32,0,17.81-5.36,21.82-13.77l19.62-41.15c3.49-1.35,6.96-2.8,10.43-4.37l43.03,15.25c8.77,3.08,18.57.89,25.16-5.7l21.62-21.62-34.18-34.18-10.83,10.83-38.14-13.52c-6.28-2.23-13.2-1.76-19.12,1.29-7.59,3.89-15.3,7.12-22.9,9.57-6.33,2.04-11.54,6.6-14.41,12.61l-17.37,36.42h-30.62l-17.37-36.42c-2.86-6-8.07-10.57-14.41-12.61-7.6-2.45-15.3-5.67-22.9-9.57-5.92-3.05-12.83-3.5-19.12-1.29l-38.14,13.52-21.66-21.66,13.52-38.14c2.22-6.28,1.75-13.2-1.29-19.12-3.89-7.59-7.12-15.3-9.57-22.9-2.04-6.33-6.6-11.54-12.61-14.41l-36.42-17.37v-30.62l36.42-17.37c6-2.86,10.57-8.07,12.61-14.41,2.45-7.6,5.67-15.3,9.57-22.9,3.05-5.93,3.51-12.84,1.29-19.12l-13.52-38.14,10.83-10.83-34.18-34.18Z"/><path class="d" d="M325.58,376.84c-12.33,3.3-25.03,4.98-37.79,4.99-68.86,0-134.2-46.31-134.11-116.81,0-57.24,49.32-106.91,76.78-143.41,27.46-36.5,48.72-76.09,54.92-116.29.19-1.21,1.19-2.13,2.41-2.24,1.12,0,1.81,1.03,2.41,2.24,21.25,40.33,26.74,87.12,15.41,131.27-10.85,36.76-40.54,78.33-52.16,126.71-13.51,56.47,17.13,119.57,72.14,113.54ZM353.73,128.58c17.22,24.53,11.45,47.77,9.47,64.9-2.58,23.33-9.9,45.88-11.45,69.38-1.72,25.82,8.61,55.09,33.31,57.5,28.06,2.67,36.93-35.47,36.84-55.35-.09-50.36-40.37-101.57-68.18-136.44ZM329.62,290.76c-5.34-34.43,9.3-67.83,14.63-101.32,7.06-43.9,5.94-81.86-26.6-117.67,14.98,43.04,11.45,75.49-8.61,116.38-17.22,35.38-40.37,68.86-39.68,110.7.86,48.03,37.36,83.67,81,68.86,22.24-9.2,41.2-24.89,54.4-45.02-8.45,9.58-21.45,13.8-33.92,11.02-21.78-3.53-38.6-21.05-41.23-42.95Z"/></svg>