<?xml version="1.0" encoding="UTF-8"?><svg id="a" xmlns="http://www.w3.org/2000/svg" viewBox="0 0 500 500"><defs><style>.c,.d{fill:#005b99;}.c,.e{stroke-width:0px;}.d{font-family:AlfaSlabOne-Regular, 'Alfa Slab One';font-size:64px;}.e{fill:gold;}</style></defs><path class="c" d="M57.16,167.93l-10.5,10.5c-3.2,3.2-4.28,7.95-2.77,12.22l7.41,20.91c-.76,1.69-1.47,3.38-2.12,5.07l-19.99,9.53c-4.09,1.95-6.69,6.07-6.69,10.6v29.7c0,4.53,2.6,8.65,6.69,10.6l19.99,9.53c.65,1.69,1.36,3.38,2.12,5.07l-7.41,20.9c-1.51,4.27-.44,9.03,2.77,12.22l21,21c3.2,3.2,7.96,4.27,12.22,2.77l20.9-7.41c1.69.76,3.38,1.47,5.07,2.12l9.53,19.99c1.95,4.09,6.07,6.69,10.6,6.69h29.7c4.53,0,8.65-2.6,10.6-6.69l9.53-19.99c1.69-.65,3.38-1.36,5.07-2.12l20.9,7.41c4.26,1.49,9.02.43,12.22-2.77l10.5-10.5-16.61-16.61-5.26,5.26-18.53-6.57c-3.05-1.09-6.41-.86-9.29.63-3.69,1.89-7.43,3.46-11.12,4.65-3.08.99-5.61,3.21-7,6.12l-8.44,17.69h-14.88l-8.44-17.69c-1.39-2.92-3.92-5.13-7-6.12-3.69-1.19-7.43-2.76-11.12-4.65-2.87-1.48-6.23-1.7-9.29-.63l-18.53,6.57-10.52-10.52,6.57-18.53c1.08-3.05.85-6.41-.63-9.29-1.89-3.69-3.46-7.43-4.65-11.12-.99-3.08-3.21-5.61-6.12-7l-17.69-8.44v-14.88l17.69-8.44c2.92-1.39,5.13-3.92,6.12-7,1.19-3.69,2.76-7.43,4.65-11.12,1.48-2.88,1.7-6.24.63-9.29l-6.57-18.53,5.26-5.26-16.61-16.61Z"/><path class="e" d="M160.22,306.41c-5.99,1.6-12.16,2.42-18.36,2.43-33.45,0-65.19-22.5-65.15-56.75,0-27.81,23.96-51.94,37.3-69.67,13.34-17.73,23.67-36.97,26.68-56.5.09-.59.58-1.04,1.17-1.09.54,0,.88.5,1.17,1.09,10.32,19.59,12.99,42.32,7.49,63.77-5.27,17.86-19.7,38.05-25.34,61.56-6.57,27.43,8.32,58.09,35.04,55.16ZM173.9,185.8c8.36,11.92,5.56,23.21,4.6,31.53-1.25,11.33-4.81,22.29-5.56,33.71-.84,12.55,4.18,26.76,16.18,27.93,13.63,1.3,17.94-17.23,17.9-26.89-.04-24.46-19.61-49.35-33.12-66.28ZM162.19,264.59c-2.59-16.73,4.52-32.95,7.11-49.22,3.43-21.33,2.89-39.77-12.92-57.17,7.28,20.91,5.56,36.67-4.18,56.54-8.36,17.19-19.61,33.45-19.28,53.78.42,23.33,18.15,40.65,39.35,33.45,10.81-4.47,20.02-12.09,26.43-21.87-4.11,4.65-10.42,6.71-16.48,5.35-10.58-1.71-18.75-10.22-20.03-20.87Z"/><text class="d" transform="translate(224.52 269.15)"><tspan x="0" y="0">Fugafix</tspan></text></svg>